<?xml version="1.0" encoding="UTF-8"?>
<!DOCTYPE svg PUBLIC "-//W3C//DTD SVG 1.1//EN" "http://www.w3.org/Graphics/SVG/1.1/DTD/svg11.dtd">
<!-- Creator: CorelDRAW X6 -->
<svg xmlns="http://www.w3.org/2000/svg" xml:space="preserve" width="148px" height="19px" version="1.1" style="shape-rendering:geometricPrecision; text-rendering:geometricPrecision; image-rendering:optimizeQuality; fill-rule:evenodd; clip-rule:evenodd"
viewBox="0 0 91 12"
 xmlns:xlink="http://www.w3.org/1999/xlink">
 <defs>
  <style type="text/css">
   <![CDATA[
    .fil0 {fill:#2B2A29;fill-rule:nonzero}
    .fil1 {fill:#FBBA18;fill-rule:nonzero}
   ]]>
  </style>
 </defs>
 <g id="Слой_x0020_1">
  <metadata id="CorelCorpID_0Corel-Layer"/>
  <polygon id="Лого_sunrise.cdr" class="fil0" points="0,7 0,6 6,4 6,5 1,7 6,9 6,10 "/>
  <polygon id="1" class="fil0" points="81,12 83,2 84,2 82,12 "/>
  <polygon id="2" class="fil0" points="91,7 85,10 85,9 90,7 85,5 85,4 91,6 "/>
  <path id="3" class="fil1" d="M8 8l3 0c0,0 0,1 0,1 0,1 1,1 2,1 1,0 1,0 1,-1 1,0 1,0 1,-1 0,0 0,0 0,0 -1,-1 -1,-1 -2,-1 -1,-1 -2,-1 -2,-1 0,-1 -1,-1 -1,-1 0,-1 0,-1 0,-2 0,-1 0,-1 1,-2 0,-1 1,-1 3,-1 1,0 2,0 3,1 1,1 1,1 1,2l-2 1c0,-1 0,-1 -1,-2 0,0 -1,0 -1,0 -1,0 -1,0 -2,0 0,0 0,1 0,1 0,0 0,1 0,1 1,0 1,0 2,1 1,0 2,1 3,1 0,1 0,1 0,2 0,1 0,2 -1,3 -1,0 -2,1 -3,1 -1,0 -2,0 -3,-1 0,0 -1,-1 -1,-1 -1,-1 -1,-1 -1,-2z"/>
  <path id="4" class="fil1" d="M22 0l2 0 -1 6 -1 2c0,0 0,0 0,0 0,1 0,1 1,1 0,1 1,1 1,1 1,0 1,0 2,-1 0,0 0,0 1,0 0,-1 0,-2 0,-3l2 -6 2 0 -1 7c-1,1 -1,2 -1,2 -1,1 -1,2 -2,2 -1,1 -2,1 -3,1 -1,0 -2,-1 -3,-1 -1,-1 -1,-2 -1,-3 0,0 0,0 0,0 0,-1 0,-1 0,-2l2 -6z"/>
  <polygon id="5" class="fil1" points="40,12 38,12 35,4 33,12 31,12 34,0 36,0 39,8 40,0 43,0 "/>
  <path id="6" class="fil1" d="M45 12l-2 0 3 -12 5 0c0,0 1,0 2,0 0,1 0,1 1,1 0,1 0,1 0,2 0,1 0,2 -1,3 0,0 -1,1 -2,1 0,0 0,0 1,1 0,1 1,2 1,4l-2 0c0,-1 -1,-2 -1,-3 -1,-1 -1,-2 -1,-2 -1,0 -1,0 -2,0l-1 0 -1 5zm2 -7l1 0c1,0 2,0 3,0 0,0 0,0 0,-1 1,0 1,0 1,-1 0,0 0,-1 -1,-1 0,0 0,0 -1,0l-3 0 0 3z"/>
  <path id="7" class="fil1" d="M56 5l0 -2c2,-1 4,-2 5,-3l1 0 -2 12 -2 0 1 -8c0,0 -1,0 -1,1 -1,0 -1,0 -2,0z"/>
  <path id="8" class="fil1" d="M63 9l2 0c1,0 1,1 1,1 0,0 1,0 1,0 1,0 1,0 2,0 0,0 0,-1 0,-1 0,0 0,0 0,0 0,0 -1,0 -1,-1 -2,0 -2,0 -3,-1 0,0 0,-1 0,-1 0,-1 0,-1 0,-2 1,-1 2,-1 3,-1 1,0 2,0 3,1 0,0 1,1 1,1l-2 1c0,-1 -1,-1 -1,-1 0,0 -1,0 -1,0 -1,0 -1,0 -1,0 0,0 0,0 0,0 0,1 0,1 0,1 0,0 0,0 1,0 1,1 2,1 2,1 1,1 1,1 1,2 0,1 0,1 -1,2 -1,0 -1,1 -3,1 -1,0 -2,0 -2,-1 -1,0 -1,-1 -2,-2z"/>
  <path id="9" class="fil1" d="M80 8l-5 0c0,0 0,0 0,0 0,1 0,1 0,2 1,0 1,0 1,0 1,0 2,0 2,-1l2 0c0,1 -1,2 -1,2 -1,1 -2,1 -3,1 -1,0 -2,-1 -2,-1 -1,-1 -1,-2 -1,-3 0,-1 0,-2 1,-3 0,-1 2,-2 3,-2 1,0 2,0 3,1 0,1 1,2 1,3 0,0 -1,1 -1,1zm-1 -1c0,0 0,0 0,0 0,-1 -1,-2 -1,-2 0,0 -1,0 -1,0 0,0 -1,0 -1,0 -1,1 -1,1 -1,2l4 0z"/>
 </g>
</svg>
